<svg xmlns="http://www.w3.org/2000/svg" viewBox="0 0 92.87 183.28"><defs><style>.cls-1{fill:#cf9455;}.cls-2{fill:#282e3f;}</style></defs><g id="Calque_2" data-name="Calque 2"><g id="Calque_1-2" data-name="Calque 1"><path class="cls-1" d="M92.69,20.16,81.94,28.84S64.15,8.58,54.64,5.27c0,0,38.88,29-9.92,99.53C7.65,158.4,1.34,164.92,0,166.15l1.71,7.29S97.65,66.89,92.69,20.16Zm-16.4,39c2.33-12.4-3.73-29.07-3.73-29.07C83.53,38.75,76.54,58.45,76.29,59.15Z"/><path class="cls-1" d="M92.87,5.27H87.81a8.74,8.74,0,1,1-9,1L70.63,8.58V3.89S79,0,92.87,0Z"/><path class="cls-2" d="M54.46,183.28l3.27-4.7c-.61-1.25-3.26-7.66-14.52-56.19C28.38,58.49,64.16,48.86,64.16,48.86c-7.69-.33-26,9.07-26,9.07l-5.2-9.2C16.25,80.55,54.46,183.28,54.46,183.28Zm-10-121.83s-9,10.14-10.83,19.61C33.63,80.49,34.21,64.52,44.44,61.45Z"/><path class="cls-2" d="M37,38.1l3.6,1.43a6.68,6.68,0,1,0,6.12,3.27l5.15,3.91,1.32-3.33s-4.85-5.12-14.71-9Z"/></g></g></svg>